<svg width="15" height="15" viewBox="0 0 15 15" fill="none" xmlns="http://www.w3.org/2000/svg">
<path fill-rule="evenodd" clip-rule="evenodd" d="M7.5 0.59375C3.68562 0.59375 0.59375 3.68562 0.59375 7.5C0.59375 11.3144 3.68562 14.4062 7.5 14.4062C11.3144 14.4062 14.4062 11.3144 14.4062 7.5C14.4062 3.68562 11.3144 0.59375 7.5 0.59375ZM8.03125 3.25C8.03125 3.1091 7.97528 2.97398 7.87565 2.87435C7.77602 2.77472 7.6409 2.71875 7.5 2.71875C7.3591 2.71875 7.22398 2.77472 7.12435 2.87435C7.02472 2.97398 6.96875 3.1091 6.96875 3.25V7.5C6.96875 7.79325 7.20675 8.03125 7.5 8.03125H10.6875C10.8284 8.03125 10.9635 7.97528 11.0632 7.87565C11.1628 7.77602 11.2188 7.6409 11.2188 7.5C11.2188 7.3591 11.1628 7.22398 11.0632 7.12435C10.9635 7.02472 10.8284 6.96875 10.6875 6.96875H8.03125V3.25Z" fill="#3E4D31"/>
</svg>
