<svg width="15" height="15" viewBox="0 0 15 15" fill="none" xmlns="http://www.w3.org/2000/svg">
<path fill-rule="evenodd" clip-rule="evenodd" d="M7.5 0.59375C3.68562 0.59375 0.59375 3.68562 0.59375 7.5C0.59375 11.3144 3.68562 14.4062 7.5 14.4062C11.3144 14.4062 14.4062 11.3144 14.4062 7.5C14.4062 3.68562 11.3144 0.59375 7.5 0.59375ZM3.43558 3.301C2.57354 4.13564 1.98931 5.2154 1.76227 6.39362C1.53523 7.57184 1.67638 8.79139 2.16654 9.88659C2.65671 10.9818 3.47213 11.8996 4.50204 12.5152C5.53194 13.1309 6.7264 13.4146 7.92315 13.3278C9.1199 13.241 10.2609 12.7879 11.1912 12.0301C12.1215 11.2723 12.796 10.2465 13.123 9.09199C13.45 7.93751 13.4137 6.71036 13.019 5.57723C12.6244 4.44411 11.8905 3.45993 10.917 2.75842C10.6774 3.14135 10.3592 3.46899 9.98342 3.71962L9.09375 4.3125L9.21062 4.54625C9.26441 4.65386 9.28296 4.77567 9.26366 4.89441C9.24435 5.01315 9.18816 5.12281 9.10306 5.20783C9.01795 5.29286 8.90825 5.34895 8.78948 5.36814C8.67072 5.38734 8.54893 5.36868 8.44138 5.31479L8.01354 5.10087C7.86405 5.02611 7.69484 5.00025 7.52984 5.02695C7.36484 5.05364 7.21242 5.13154 7.09412 5.24962L7.00062 5.34242C6.68967 5.65408 6.68967 6.15842 7.00062 6.46937L7.21029 6.67904C7.39162 6.86108 7.65088 6.94396 7.90446 6.90146L8.73321 6.76333C8.962 6.72508 9.19646 6.78883 9.37425 6.93687L10.3163 7.72171C10.543 7.91083 10.6422 8.21329 10.5699 8.50087C10.2989 9.58396 9.73873 10.5731 8.94925 11.3625L8.43712 11.8754C8.31883 11.9935 8.16641 12.0714 8.00141 12.0981C7.83641 12.1247 7.6672 12.0989 7.51771 12.0241L7.40933 11.9703C7.27698 11.9041 7.16566 11.8024 7.08784 11.6766C7.01002 11.5507 6.96879 11.4057 6.96875 11.2577V10.4863C6.96875 10.2752 6.88446 10.072 6.735 9.9225L5.78087 8.96838C5.66279 8.85008 5.58489 8.69766 5.5582 8.53266C5.5315 8.36766 5.55736 8.19845 5.63212 8.04896L5.90625 7.5L4.74458 6.33833C4.11806 5.71186 3.70299 4.90525 3.55742 4.03129L3.43558 3.301Z" fill="#3E4D31"/>
</svg>
