<svg width="13" height="13" viewBox="0 0 13 13" fill="none" xmlns="http://www.w3.org/2000/svg">
<path d="M8.73167 1.04509L2.83238 4.06542L0.4875 2.91167L6.28279 0.0500443C6.34844 0.0174494 6.42075 0.000488281 6.49404 0.000488281C6.56734 0.000488281 6.63964 0.0174494 6.70529 0.0500443L8.73167 1.04509ZM12.506 2.91167L6.50325 5.88542L4.25533 4.77771L3.93033 4.6125L9.83613 1.59271L10.1611 1.75738L12.506 2.91167ZM6.02225 6.74234L6.01575 13.0002L0.2665 9.99992C0.186232 9.95727 0.119048 9.89362 0.0721134 9.81578C0.025179 9.73794 0.000255016 9.64882 0 9.55792L0 3.76859L2.43642 4.96892V7.07925C2.43642 7.34954 2.65742 7.57379 2.92392 7.57379C3.19042 7.57379 3.41142 7.34954 3.41142 7.07925V5.45696L3.73642 5.61513L6.02225 6.74234ZM12.9935 3.77509L6.99725 6.73584L6.99075 12.9937L13 9.85584L12.9935 3.77509Z" fill="#3E4D31"/>
</svg>
