<svg width="151" height="49" viewBox="0 0 151 49" fill="none" xmlns="http://www.w3.org/2000/svg">
<path d="M62.12 21V9.48H66.608C67.296 9.48 67.8827 9.62133 68.368 9.904C68.8587 10.1867 69.232 10.56 69.488 11.024C69.7493 11.4827 69.88 11.9787 69.88 12.512C69.88 13.136 69.72 13.6827 69.4 14.152C69.08 14.6213 68.648 14.944 68.104 15.12L68.088 14.728C68.8293 14.9253 69.4053 15.288 69.816 15.816C70.2267 16.344 70.432 16.9733 70.432 17.704C70.432 18.376 70.2933 18.9573 70.016 19.448C69.744 19.9387 69.3493 20.32 68.832 20.592C68.32 20.864 67.712 21 67.008 21H62.12ZM63.56 19.64H66.736C67.1627 19.64 67.544 19.5627 67.88 19.408C68.216 19.248 68.48 19.024 68.672 18.736C68.8693 18.448 68.968 18.1013 68.968 17.696C68.968 17.3067 68.88 16.9573 68.704 16.648C68.5333 16.3387 68.2907 16.0933 67.976 15.912C67.6667 15.7253 67.3067 15.632 66.896 15.632H63.56V19.64ZM63.56 14.288H66.592C66.9333 14.288 67.24 14.216 67.512 14.072C67.7893 13.9227 68.008 13.7147 68.168 13.448C68.3333 13.1813 68.416 12.8693 68.416 12.512C68.416 12.016 68.248 11.6107 67.912 11.296C67.576 10.9813 67.136 10.824 66.592 10.824H63.56V14.288ZM75.6663 21.24C74.7916 21.24 74.0476 21.0453 73.4343 20.656C72.8263 20.2613 72.3623 19.72 72.0423 19.032C71.7223 18.344 71.5569 17.56 71.5463 16.68C71.5569 15.7787 71.7249 14.9867 72.0503 14.304C72.3809 13.616 72.8529 13.08 73.4663 12.696C74.0796 12.312 74.8183 12.12 75.6823 12.12C76.5943 12.12 77.3783 12.344 78.0343 12.792C78.6956 13.24 79.1383 13.8533 79.3623 14.632L77.9543 15.056C77.7729 14.5547 77.4769 14.1653 77.0663 13.888C76.6609 13.6107 76.1943 13.472 75.6663 13.472C75.0743 13.472 74.5863 13.6107 74.2023 13.888C73.8183 14.16 73.5329 14.5387 73.3463 15.024C73.1596 15.504 73.0636 16.056 73.0583 16.68C73.0689 17.64 73.2903 18.416 73.7223 19.008C74.1596 19.5947 74.8076 19.888 75.6663 19.888C76.2316 19.888 76.7009 19.76 77.0743 19.504C77.4476 19.2427 77.7303 18.8667 77.9223 18.376L79.3623 18.752C79.0636 19.5573 78.5969 20.1733 77.9623 20.6C77.3276 21.0267 76.5623 21.24 75.6663 21.24ZM84.739 21.24C83.891 21.24 83.1497 21.0533 82.515 20.68C81.8857 20.3013 81.395 19.776 81.043 19.104C80.691 18.4267 80.515 17.6373 80.515 16.736C80.515 15.792 80.6883 14.976 81.035 14.288C81.3817 13.5947 81.8643 13.0613 82.483 12.688C83.107 12.3093 83.8377 12.12 84.675 12.12C85.5443 12.12 86.283 12.32 86.891 12.72C87.5043 13.12 87.963 13.6907 88.267 14.432C88.5763 15.1733 88.7097 16.056 88.667 17.08H87.227V16.568C87.211 15.5067 86.995 14.7147 86.579 14.192C86.163 13.664 85.5443 13.4 84.723 13.4C83.843 13.4 83.1737 13.6827 82.715 14.248C82.2563 14.8133 82.027 15.624 82.027 16.68C82.027 17.6987 82.2563 18.488 82.715 19.048C83.1737 19.608 83.827 19.888 84.675 19.888C85.2457 19.888 85.7417 19.7573 86.163 19.496C86.5843 19.2347 86.915 18.8587 87.155 18.368L88.523 18.84C88.187 19.6027 87.6803 20.1947 87.003 20.616C86.331 21.032 85.5763 21.24 84.739 21.24ZM81.547 17.08V15.936H87.931V17.08H81.547ZM90.4481 21V12.36H96.4481V13.712H91.8721V21H90.4481ZM97.1675 22.92V19.824C97.6528 19.824 97.9995 19.6667 98.2075 19.352C98.4155 19.032 98.5835 18.5067 98.7115 17.776C98.7968 17.3173 98.8662 16.8267 98.9195 16.304C98.9728 15.7813 99.0182 15.2 99.0555 14.56C99.0982 13.9147 99.1382 13.1813 99.1755 12.36H105.128V19.824H105.968V22.92H104.608V21H98.5275V22.92H97.1675ZM99.3595 19.824H103.704V13.536H100.464C100.448 13.9147 100.426 14.312 100.4 14.728C100.373 15.1387 100.341 15.5493 100.304 15.96C100.272 16.3707 100.232 16.76 100.184 17.128C100.141 17.4907 100.09 17.816 100.032 18.104C99.9622 18.504 99.8822 18.8427 99.7915 19.12C99.7008 19.3973 99.5568 19.632 99.3595 19.824ZM110.029 21.24C109.384 21.24 108.842 21.1227 108.405 20.888C107.973 20.648 107.645 20.3333 107.421 19.944C107.202 19.5547 107.093 19.128 107.093 18.664C107.093 18.2107 107.178 17.8187 107.349 17.488C107.525 17.152 107.77 16.8747 108.085 16.656C108.4 16.432 108.776 16.256 109.213 16.128C109.624 16.016 110.082 15.92 110.589 15.84C111.101 15.7547 111.618 15.6773 112.141 15.608C112.664 15.5387 113.152 15.472 113.605 15.408L113.093 15.704C113.109 14.936 112.954 14.368 112.629 14C112.309 13.632 111.754 13.448 110.965 13.448C110.442 13.448 109.984 13.568 109.589 13.808C109.2 14.0427 108.925 14.4267 108.765 14.96L107.413 14.552C107.621 13.7947 108.024 13.2 108.621 12.768C109.218 12.336 110.005 12.12 110.981 12.12C111.765 12.12 112.437 12.2613 112.997 12.544C113.562 12.8213 113.968 13.2427 114.213 13.808C114.336 14.0747 114.413 14.3653 114.445 14.68C114.477 14.9893 114.493 15.3147 114.493 15.656V21H113.229V18.928L113.525 19.12C113.2 19.8187 112.744 20.3467 112.157 20.704C111.576 21.0613 110.866 21.24 110.029 21.24ZM110.245 20.048C110.757 20.048 111.2 19.9573 111.573 19.776C111.952 19.5893 112.256 19.3467 112.485 19.048C112.714 18.744 112.864 18.4133 112.933 18.056C113.013 17.7893 113.056 17.4933 113.061 17.168C113.072 16.8373 113.077 16.584 113.077 16.408L113.573 16.624C113.109 16.688 112.653 16.7493 112.205 16.808C111.757 16.8667 111.333 16.9307 110.933 17C110.533 17.064 110.173 17.1413 109.853 17.232C109.618 17.3067 109.397 17.4027 109.189 17.52C108.986 17.6373 108.821 17.7893 108.693 17.976C108.57 18.1573 108.509 18.384 108.509 18.656C108.509 18.8907 108.568 19.1147 108.685 19.328C108.808 19.5413 108.994 19.7147 109.245 19.848C109.501 19.9813 109.834 20.048 110.245 20.048ZM126.608 21V15.688L126.928 16.192C126.582 16.4533 126.139 16.664 125.6 16.824C125.067 16.9787 124.475 17.056 123.824 17.056C122.838 17.056 122.048 16.8693 121.456 16.496C120.864 16.1227 120.435 15.6107 120.168 14.96C119.907 14.304 119.776 13.552 119.776 12.704V9.48H121.216V12.232C121.216 12.7173 121.256 13.1707 121.336 13.592C121.422 14.008 121.568 14.3733 121.776 14.688C121.984 15.0027 122.272 15.248 122.64 15.424C123.008 15.5947 123.475 15.68 124.04 15.68C124.723 15.68 125.307 15.5733 125.792 15.36C126.283 15.1467 126.638 14.9173 126.856 14.672L126.608 15.624V9.48H128.04V21H126.608ZM134.02 21.24C133.172 21.24 132.431 21.0533 131.796 20.68C131.167 20.3013 130.676 19.776 130.324 19.104C129.972 18.4267 129.796 17.6373 129.796 16.736C129.796 15.792 129.97 14.976 130.316 14.288C130.663 13.5947 131.146 13.0613 131.764 12.688C132.388 12.3093 133.119 12.12 133.956 12.12C134.826 12.12 135.564 12.32 136.172 12.72C136.786 13.12 137.244 13.6907 137.548 14.432C137.858 15.1733 137.991 16.056 137.948 17.08H136.508V16.568C136.492 15.5067 136.276 14.7147 135.86 14.192C135.444 13.664 134.826 13.4 134.004 13.4C133.124 13.4 132.455 13.6827 131.996 14.248C131.538 14.8133 131.308 15.624 131.308 16.68C131.308 17.6987 131.538 18.488 131.996 19.048C132.455 19.608 133.108 19.888 133.956 19.888C134.527 19.888 135.023 19.7573 135.444 19.496C135.866 19.2347 136.196 18.8587 136.436 18.368L137.804 18.84C137.468 19.6027 136.962 20.1947 136.284 20.616C135.612 21.032 134.858 21.24 134.02 21.24ZM130.828 17.08V15.936H137.212V17.08H130.828ZM139.721 21L139.729 12.36H141.169V16.52L144.793 12.36H146.641L142.825 16.68L147.089 21H145.097L141.169 16.84V21H139.721ZM65.016 38.88V35.824H61.96V34.648H65.016V31.6H66.192V34.648H69.24V35.824H66.192V38.88H65.016ZM74.5263 41V29.48H81.8063V30.832H75.9503V41H74.5263ZM84.4198 41.24C83.7744 41.24 83.2331 41.1227 82.7958 40.888C82.3638 40.648 82.0358 40.3333 81.8118 39.944C81.5931 39.5547 81.4838 39.128 81.4838 38.664C81.4838 38.2107 81.5691 37.8187 81.7398 37.488C81.9158 37.152 82.1611 36.8747 82.4758 36.656C82.7904 36.432 83.1664 36.256 83.6038 36.128C84.0144 36.016 84.4731 35.92 84.9798 35.84C85.4918 35.7547 86.0091 35.6773 86.5318 35.608C87.0544 35.5387 87.5424 35.472 87.9958 35.408L87.4838 35.704C87.4998 34.936 87.3451 34.368 87.0198 34C86.6998 33.632 86.1451 33.448 85.3558 33.448C84.8331 33.448 84.3744 33.568 83.9798 33.808C83.5904 34.0427 83.3158 34.4267 83.1558 34.96L81.8038 34.552C82.0118 33.7947 82.4144 33.2 83.0118 32.768C83.6091 32.336 84.3958 32.12 85.3718 32.12C86.1558 32.12 86.8278 32.2613 87.3878 32.544C87.9531 32.8213 88.3584 33.2427 88.6038 33.808C88.7264 34.0747 88.8038 34.3653 88.8358 34.68C88.8678 34.9893 88.8837 35.3147 88.8837 35.656V41H87.6198V38.928L87.9158 39.12C87.5904 39.8187 87.1344 40.3467 86.5478 40.704C85.9664 41.0613 85.2571 41.24 84.4198 41.24ZM84.6358 40.048C85.1478 40.048 85.5904 39.9573 85.9638 39.776C86.3424 39.5893 86.6464 39.3467 86.8758 39.048C87.1051 38.744 87.2544 38.4133 87.3238 38.056C87.4038 37.7893 87.4464 37.4933 87.4518 37.168C87.4624 36.8373 87.4678 36.584 87.4678 36.408L87.9638 36.624C87.4998 36.688 87.0438 36.7493 86.5958 36.808C86.1478 36.8667 85.7238 36.9307 85.3238 37C84.9238 37.064 84.5638 37.1413 84.2438 37.232C84.0091 37.3067 83.7878 37.4027 83.5798 37.52C83.3771 37.6373 83.2118 37.7893 83.0838 37.976C82.9611 38.1573 82.8997 38.384 82.8997 38.656C82.8997 38.8907 82.9584 39.1147 83.0758 39.328C83.1984 39.5413 83.3851 39.7147 83.6358 39.848C83.8918 39.9813 84.2251 40.048 84.6358 40.048ZM94.9318 41.24C94.1211 41.24 93.4384 41.04 92.8838 40.64C92.3291 40.2347 91.9078 39.688 91.6198 39C91.3371 38.3067 91.1958 37.5307 91.1958 36.672C91.1958 35.8027 91.3371 35.024 91.6198 34.336C91.9078 33.648 92.3291 33.1067 92.8838 32.712C93.4438 32.3173 94.1291 32.12 94.9398 32.12C95.7398 32.12 96.4278 32.32 97.0038 32.72C97.5851 33.1147 98.0304 33.656 98.3398 34.344C98.6491 35.032 98.8038 35.808 98.8038 36.672C98.8038 37.536 98.6491 38.312 98.3398 39C98.0304 39.688 97.5851 40.2347 97.0038 40.64C96.4278 41.04 95.7371 41.24 94.9318 41.24ZM90.9558 44.84V32.36H92.2278V38.72H92.3878V44.84H90.9558ZM94.7558 39.936C95.3264 39.936 95.7984 39.792 96.1718 39.504C96.5451 39.216 96.8251 38.8267 97.0118 38.336C97.1984 37.84 97.2918 37.2853 97.2918 36.672C97.2918 36.064 97.1984 35.5147 97.0118 35.024C96.8304 34.5333 96.5478 34.144 96.1638 33.856C95.7851 33.568 95.3024 33.424 94.7158 33.424C94.1558 33.424 93.6918 33.5627 93.3238 33.84C92.9558 34.112 92.6811 34.4933 92.4998 34.984C92.3184 35.4693 92.2278 36.032 92.2278 36.672C92.2278 37.3013 92.3158 37.864 92.4918 38.36C92.6731 38.8507 92.9504 39.2373 93.3238 39.52C93.6971 39.7973 94.1744 39.936 94.7558 39.936ZM103.014 41.24C102.368 41.24 101.827 41.1227 101.39 40.888C100.958 40.648 100.63 40.3333 100.406 39.944C100.187 39.5547 100.078 39.128 100.078 38.664C100.078 38.2107 100.163 37.8187 100.334 37.488C100.51 37.152 100.755 36.8747 101.07 36.656C101.384 36.432 101.76 36.256 102.198 36.128C102.608 36.016 103.067 35.92 103.574 35.84C104.086 35.7547 104.603 35.6773 105.126 35.608C105.648 35.5387 106.136 35.472 106.59 35.408L106.078 35.704C106.094 34.936 105.939 34.368 105.614 34C105.294 33.632 104.739 33.448 103.95 33.448C103.427 33.448 102.968 33.568 102.574 33.808C102.184 34.0427 101.91 34.4267 101.75 34.96L100.398 34.552C100.606 33.7947 101.008 33.2 101.606 32.768C102.203 32.336 102.99 32.12 103.966 32.12C104.75 32.12 105.422 32.2613 105.982 32.544C106.547 32.8213 106.952 33.2427 107.198 33.808C107.32 34.0747 107.398 34.3653 107.43 34.68C107.462 34.9893 107.477 35.3147 107.477 35.656V41H106.214V38.928L106.51 39.12C106.184 39.8187 105.728 40.3467 105.142 40.704C104.56 41.0613 103.851 41.24 103.014 41.24ZM103.23 40.048C103.742 40.048 104.184 39.9573 104.558 39.776C104.936 39.5893 105.24 39.3467 105.47 39.048C105.699 38.744 105.848 38.4133 105.918 38.056C105.998 37.7893 106.04 37.4933 106.046 37.168C106.056 36.8373 106.062 36.584 106.062 36.408L106.558 36.624C106.094 36.688 105.638 36.7493 105.19 36.808C104.742 36.8667 104.318 36.9307 103.918 37C103.518 37.064 103.158 37.1413 102.838 37.232C102.603 37.3067 102.382 37.4027 102.174 37.52C101.971 37.6373 101.806 37.7893 101.678 37.976C101.555 38.1573 101.493 38.384 101.493 38.656C101.493 38.8907 101.552 39.1147 101.67 39.328C101.792 39.5413 101.979 39.7147 102.23 39.848C102.486 39.9813 102.819 40.048 103.23 40.048ZM109.55 41V32.36H110.974V36H115.518V32.36H116.942V41H115.518V37.352H110.974V41H109.55ZM121.471 41V33.656H118.463V32.36H125.903V33.656H122.895V41H121.471ZM134.489 32.36V41H133.113V34.632L128.585 41H127.409V32.36H128.785V38.64L133.321 32.36H134.489ZM142.065 41V37.872H140.201C139.983 37.872 139.74 37.864 139.473 37.848C139.212 37.8267 138.967 37.7973 138.737 37.76C138.113 37.6427 137.585 37.368 137.153 36.936C136.727 36.504 136.513 35.9067 136.513 35.144C136.513 34.4027 136.713 33.808 137.113 33.36C137.519 32.9067 138.017 32.6133 138.609 32.48C138.876 32.416 139.145 32.3813 139.417 32.376C139.695 32.3653 139.929 32.36 140.121 32.36H143.489L143.497 41H142.065ZM136.249 41L138.545 37.48H140.081L137.785 41H136.249ZM140.097 36.696H142.065V33.536H140.097C139.975 33.536 139.812 33.5413 139.609 33.552C139.412 33.5627 139.223 33.5947 139.041 33.648C138.871 33.696 138.703 33.784 138.537 33.912C138.377 34.04 138.244 34.2053 138.137 34.408C138.031 34.6107 137.977 34.8507 137.977 35.128C137.977 35.528 138.089 35.8533 138.313 36.104C138.537 36.3493 138.809 36.5147 139.129 36.6C139.305 36.6427 139.479 36.6693 139.649 36.68C139.825 36.6907 139.975 36.696 140.097 36.696Z" fill="#262626"/>
<circle cx="24.5" cy="24.5" r="24.5" fill="url(#paint0_linear_12_2845)" fill-opacity="0.68"/>
<path d="M31.2173 24.7995H28.3512C28.0076 24.7995 27.7227 24.5146 27.7227 24.171V18.313C27.7227 17.6929 27.9657 17.1146 28.4015 16.6788C28.8373 16.243 29.4155 16 30.0357 16H30.0441C31.0916 16.0084 32.0805 16.419 32.8348 17.1649C33.589 17.9275 33.9996 18.9332 33.9996 19.9807V22.0088C34.008 23.6765 32.885 24.7995 31.2173 24.7995ZM28.9797 23.5424H31.2173C32.1895 23.5424 32.7509 22.9809 32.7509 22.0088V19.9807C32.7509 19.26 32.466 18.5728 31.9548 18.0532C31.4436 17.5504 30.7564 17.2655 30.0441 17.2571H30.0357C29.7591 17.2571 29.4909 17.366 29.2898 17.5672C29.0887 17.7683 28.9797 18.0281 28.9797 18.313V23.5424Z" fill="white"/>
<path d="M22.4865 34.5041C22.0926 34.5041 21.7239 34.3533 21.4473 34.0683L20.0562 32.6688C20.0204 32.6321 19.9722 32.6101 19.9211 32.607C19.87 32.6039 19.8195 32.62 19.7796 32.652L18.3465 33.7247C17.9024 34.0599 17.3157 34.1186 16.8129 33.8672C16.3101 33.6158 16 33.113 16 32.5515V19.9807C16 17.4498 17.4498 16 19.9807 16H30.0373C30.3809 16 30.6659 16.2849 30.6659 16.6285C30.6659 16.9721 30.3809 17.2571 30.0373 17.2571C29.4591 17.2571 28.9898 17.7264 28.9898 18.3046V32.5515C28.9898 33.113 28.6797 33.6158 28.1768 33.8672C27.674 34.1186 27.0874 34.0683 26.6432 33.7331L25.2102 32.6604C25.171 32.6302 25.1223 32.6152 25.0729 32.6183C25.0236 32.6214 24.977 32.6423 24.942 32.6772L23.5341 34.0851C23.2491 34.3533 22.8804 34.5041 22.4865 34.5041ZM19.8969 31.3531C20.2824 31.3531 20.6596 31.4955 20.9445 31.7888L22.3356 33.1884C22.3859 33.2387 22.453 33.247 22.4865 33.247C22.4781 33.2303 22.5871 33.2387 22.6373 33.1884L24.0453 31.7805C24.5649 31.2609 25.3861 31.2106 25.9644 31.6548L27.3891 32.7191C27.4813 32.7861 27.5651 32.761 27.607 32.7358C27.6489 32.7107 27.7243 32.6604 27.7243 32.5515V18.3046C27.7243 17.9275 27.8165 17.5672 27.9757 17.2571H19.9724C18.1119 17.2571 17.2487 18.1203 17.2487 19.9807V32.5515C17.2487 32.6688 17.3241 32.7191 17.366 32.7442C17.4163 32.7694 17.5001 32.7861 17.5839 32.7191L19.017 31.6464C19.2768 31.4536 19.5868 31.3531 19.8969 31.3531Z" fill="white"/>
<path d="M24.7925 23.9602H20.1832C19.8396 23.9602 19.5547 23.6753 19.5547 23.3317C19.5547 22.9881 19.8396 22.7031 20.1832 22.7031H24.7925C25.1361 22.7031 25.421 22.9881 25.421 23.3317C25.421 23.6753 25.1361 23.9602 24.7925 23.9602Z" fill="white"/>
<defs>
<linearGradient id="paint0_linear_12_2845" x1="-1.1878e-07" y1="31.2449" x2="50.4076" y2="28.6621" gradientUnits="userSpaceOnUse">
<stop stop-color="#5F6308"/>
<stop offset="1" stop-color="#302F02"/>
</linearGradient>
</defs>
</svg>
