<svg width="237" height="49" viewBox="0 0 237 49" fill="none" xmlns="http://www.w3.org/2000/svg">
<path d="M61.56 22.92V19.648C61.9813 19.648 62.3227 19.5413 62.584 19.328C62.8507 19.1147 63.0587 18.8267 63.208 18.464C63.3573 18.096 63.4693 17.6827 63.544 17.224C63.624 16.7653 63.688 16.2907 63.736 15.8C63.8053 15.1067 63.8613 14.4347 63.904 13.784C63.952 13.1333 63.9947 12.4587 64.032 11.76C64.0693 11.0613 64.112 10.2987 64.16 9.472L71.4 9.48V19.648H72.24V22.92H70.816V21H62.984V22.92H61.56ZM64.056 19.648H69.976V10.832L65.48 10.824C65.448 11.4427 65.416 12.0373 65.384 12.608C65.3573 13.1733 65.3227 13.744 65.28 14.32C65.2373 14.896 65.184 15.5067 65.12 16.152C65.0613 16.7493 64.9947 17.2667 64.92 17.704C64.8507 18.136 64.7493 18.5093 64.616 18.824C64.4827 19.1333 64.296 19.408 64.056 19.648ZM77.675 21.24C76.8163 21.24 76.075 21.0453 75.451 20.656C74.8323 20.2667 74.355 19.728 74.019 19.04C73.683 18.352 73.515 17.5627 73.515 16.672C73.515 15.7653 73.6857 14.9707 74.027 14.288C74.3683 13.6053 74.851 13.0747 75.475 12.696C76.099 12.312 76.8323 12.12 77.675 12.12C78.539 12.12 79.283 12.3147 79.907 12.704C80.531 13.088 81.0083 13.624 81.339 14.312C81.675 14.9947 81.843 15.7813 81.843 16.672C81.843 17.5733 81.675 18.368 81.339 19.056C81.003 19.7387 80.523 20.2747 79.899 20.664C79.275 21.048 78.5337 21.24 77.675 21.24ZM77.675 19.888C78.571 19.888 79.2377 19.5893 79.675 18.992C80.1123 18.3947 80.331 17.6213 80.331 16.672C80.331 15.696 80.1097 14.92 79.667 14.344C79.2243 13.7627 78.5603 13.472 77.675 13.472C77.0723 13.472 76.5763 13.608 76.187 13.88C75.7977 14.152 75.507 14.528 75.315 15.008C75.123 15.488 75.027 16.0427 75.027 16.672C75.027 17.6427 75.251 18.4213 75.699 19.008C76.147 19.5947 76.8057 19.888 77.675 19.888ZM87.2444 21.24C86.3697 21.24 85.6257 21.0453 85.0124 20.656C84.4044 20.2613 83.9404 19.72 83.6204 19.032C83.3004 18.344 83.135 17.56 83.1244 16.68C83.135 15.7787 83.303 14.9867 83.6284 14.304C83.959 13.616 84.431 13.08 85.0444 12.696C85.6577 12.312 86.3964 12.12 87.2604 12.12C88.1724 12.12 88.9564 12.344 89.6124 12.792C90.2737 13.24 90.7164 13.8533 90.9404 14.632L89.5324 15.056C89.351 14.5547 89.055 14.1653 88.6444 13.888C88.239 13.6107 87.7724 13.472 87.2444 13.472C86.6524 13.472 86.1644 13.6107 85.7804 13.888C85.3964 14.16 85.111 14.5387 84.9244 15.024C84.7377 15.504 84.6417 16.056 84.6364 16.68C84.647 17.64 84.8684 18.416 85.3004 19.008C85.7377 19.5947 86.3857 19.888 87.2444 19.888C87.8097 19.888 88.279 19.76 88.6524 19.504C89.0257 19.2427 89.3084 18.8667 89.5004 18.376L90.9404 18.752C90.6417 19.5573 90.175 20.1733 89.5404 20.6C88.9057 21.0267 88.1404 21.24 87.2444 21.24ZM94.7049 21V13.656H91.6969V12.36H99.1369V13.656H96.1289V21H94.7049ZM102.826 21.24C102.181 21.24 101.639 21.1227 101.202 20.888C100.77 20.648 100.442 20.3333 100.218 19.944C99.9993 19.5547 99.89 19.128 99.89 18.664C99.89 18.2107 99.9753 17.8187 100.146 17.488C100.322 17.152 100.567 16.8747 100.882 16.656C101.197 16.432 101.573 16.256 102.01 16.128C102.421 16.016 102.879 15.92 103.386 15.84C103.898 15.7547 104.415 15.6773 104.938 15.608C105.461 15.5387 105.949 15.472 106.402 15.408L105.89 15.704C105.906 14.936 105.751 14.368 105.426 14C105.106 13.632 104.551 13.448 103.762 13.448C103.239 13.448 102.781 13.568 102.386 13.808C101.997 14.0427 101.722 14.4267 101.562 14.96L100.21 14.552C100.418 13.7947 100.821 13.2 101.418 12.768C102.015 12.336 102.802 12.12 103.778 12.12C104.562 12.12 105.234 12.2613 105.794 12.544C106.359 12.8213 106.765 13.2427 107.01 13.808C107.133 14.0747 107.21 14.3653 107.242 14.68C107.274 14.9893 107.29 15.3147 107.29 15.656V21H106.026V18.928L106.322 19.12C105.997 19.8187 105.541 20.3467 104.954 20.704C104.373 21.0613 103.663 21.24 102.826 21.24ZM103.042 20.048C103.554 20.048 103.997 19.9573 104.37 19.776C104.749 19.5893 105.053 19.3467 105.282 19.048C105.511 18.744 105.661 18.4133 105.73 18.056C105.81 17.7893 105.853 17.4933 105.858 17.168C105.869 16.8373 105.874 16.584 105.874 16.408L106.37 16.624C105.906 16.688 105.45 16.7493 105.002 16.808C104.554 16.8667 104.13 16.9307 103.73 17C103.33 17.064 102.97 17.1413 102.65 17.232C102.415 17.3067 102.194 17.4027 101.986 17.52C101.783 17.6373 101.618 17.7893 101.49 17.976C101.367 18.1573 101.306 18.384 101.306 18.656C101.306 18.8907 101.365 19.1147 101.482 19.328C101.605 19.5413 101.791 19.7147 102.042 19.848C102.298 19.9813 102.631 20.048 103.042 20.048ZM109.362 21V12.36H113.042C113.261 12.36 113.495 12.3733 113.746 12.4C114.002 12.4213 114.234 12.4613 114.442 12.52C114.906 12.6427 115.287 12.896 115.586 13.28C115.89 13.6587 116.042 14.1387 116.042 14.72C116.042 15.0453 115.991 15.328 115.89 15.568C115.794 15.808 115.655 16.016 115.474 16.192C115.394 16.272 115.306 16.344 115.21 16.408C115.114 16.472 115.018 16.5227 114.922 16.56C115.109 16.592 115.298 16.664 115.49 16.776C115.794 16.9413 116.031 17.1733 116.202 17.472C116.378 17.7707 116.466 18.152 116.466 18.616C116.466 19.2027 116.325 19.688 116.042 20.072C115.759 20.4507 115.37 20.712 114.874 20.856C114.666 20.9147 114.437 20.9547 114.186 20.976C113.935 20.992 113.693 21 113.458 21H109.362ZM110.802 19.84H113.378C113.49 19.84 113.623 19.8293 113.778 19.808C113.938 19.7867 114.079 19.76 114.202 19.728C114.479 19.648 114.679 19.4987 114.802 19.28C114.93 19.0613 114.994 18.824 114.994 18.568C114.994 18.2267 114.898 17.9493 114.706 17.736C114.519 17.5227 114.271 17.3893 113.962 17.336C113.85 17.304 113.727 17.2853 113.594 17.28C113.466 17.2747 113.351 17.272 113.25 17.272H110.802V19.84ZM110.802 16.096H112.946C113.095 16.096 113.253 16.088 113.418 16.072C113.583 16.0507 113.727 16.016 113.85 15.968C114.095 15.8773 114.274 15.728 114.386 15.52C114.503 15.3067 114.562 15.0747 114.562 14.824C114.562 14.5467 114.498 14.304 114.37 14.096C114.247 13.8827 114.058 13.736 113.802 13.656C113.631 13.592 113.439 13.5573 113.226 13.552C113.018 13.5413 112.885 13.536 112.826 13.536H110.802V16.096ZM118.065 21L118.073 12.36H119.513V16.52L123.137 12.36H124.985L121.169 16.68L125.433 21H123.441L119.513 16.84V21H118.065ZM128.685 21.24C128.04 21.24 127.499 21.1227 127.061 20.888C126.629 20.648 126.301 20.3333 126.077 19.944C125.859 19.5547 125.749 19.128 125.749 18.664C125.749 18.2107 125.835 17.8187 126.005 17.488C126.181 17.152 126.427 16.8747 126.741 16.656C127.056 16.432 127.432 16.256 127.869 16.128C128.28 16.016 128.739 15.92 129.245 15.84C129.757 15.7547 130.275 15.6773 130.797 15.608C131.32 15.5387 131.808 15.472 132.261 15.408L131.749 15.704C131.765 14.936 131.611 14.368 131.285 14C130.965 13.632 130.411 13.448 129.621 13.448C129.099 13.448 128.64 13.568 128.245 13.808C127.856 14.0427 127.581 14.4267 127.421 14.96L126.069 14.552C126.277 13.7947 126.68 13.2 127.277 12.768C127.875 12.336 128.661 12.12 129.637 12.12C130.421 12.12 131.093 12.2613 131.653 12.544C132.219 12.8213 132.624 13.2427 132.869 13.808C132.992 14.0747 133.069 14.3653 133.101 14.68C133.133 14.9893 133.149 15.3147 133.149 15.656V21H131.885V18.928L132.181 19.12C131.856 19.8187 131.4 20.3467 130.813 20.704C130.232 21.0613 129.523 21.24 128.685 21.24ZM128.901 20.048C129.413 20.048 129.856 19.9573 130.229 19.776C130.608 19.5893 130.912 19.3467 131.141 19.048C131.371 18.744 131.52 18.4133 131.589 18.056C131.669 17.7893 131.712 17.4933 131.717 17.168C131.728 16.8373 131.733 16.584 131.733 16.408L132.229 16.624C131.765 16.688 131.309 16.7493 130.861 16.808C130.413 16.8667 129.989 16.9307 129.589 17C129.189 17.064 128.829 17.1413 128.509 17.232C128.275 17.3067 128.053 17.4027 127.845 17.52C127.643 17.6373 127.477 17.7893 127.349 17.976C127.227 18.1573 127.165 18.384 127.165 18.656C127.165 18.8907 127.224 19.1147 127.341 19.328C127.464 19.5413 127.651 19.7147 127.901 19.848C128.157 19.9813 128.491 20.048 128.901 20.048ZM138.425 21V12.36H145.505V21H144.081V13.712H139.849V21H138.425ZM151.425 21.24C150.566 21.24 149.825 21.0453 149.201 20.656C148.582 20.2667 148.105 19.728 147.769 19.04C147.433 18.352 147.265 17.5627 147.265 16.672C147.265 15.7653 147.436 14.9707 147.777 14.288C148.118 13.6053 148.601 13.0747 149.225 12.696C149.849 12.312 150.582 12.12 151.425 12.12C152.289 12.12 153.033 12.3147 153.657 12.704C154.281 13.088 154.758 13.624 155.089 14.312C155.425 14.9947 155.593 15.7813 155.593 16.672C155.593 17.5733 155.425 18.368 155.089 19.056C154.753 19.7387 154.273 20.2747 153.649 20.664C153.025 21.048 152.284 21.24 151.425 21.24ZM151.425 19.888C152.321 19.888 152.988 19.5893 153.425 18.992C153.862 18.3947 154.081 17.6213 154.081 16.672C154.081 15.696 153.86 14.92 153.417 14.344C152.974 13.7627 152.31 13.472 151.425 13.472C150.822 13.472 150.326 13.608 149.937 13.88C149.548 14.152 149.257 14.528 149.065 15.008C148.873 15.488 148.777 16.0427 148.777 16.672C148.777 17.6427 149.001 18.4213 149.449 19.008C149.897 19.5947 150.556 19.888 151.425 19.888ZM160.55 21V12.36H164.23C164.448 12.36 164.683 12.3733 164.934 12.4C165.19 12.4213 165.422 12.4613 165.63 12.52C166.094 12.6427 166.475 12.896 166.774 13.28C167.078 13.6587 167.23 14.1387 167.23 14.72C167.23 15.0453 167.179 15.328 167.078 15.568C166.982 15.808 166.843 16.016 166.662 16.192C166.582 16.272 166.494 16.344 166.398 16.408C166.302 16.472 166.206 16.5227 166.11 16.56C166.296 16.592 166.486 16.664 166.678 16.776C166.982 16.9413 167.219 17.1733 167.39 17.472C167.566 17.7707 167.654 18.152 167.654 18.616C167.654 19.2027 167.512 19.688 167.23 20.072C166.947 20.4507 166.558 20.712 166.062 20.856C165.854 20.9147 165.624 20.9547 165.374 20.976C165.123 20.992 164.88 21 164.646 21H160.55ZM161.99 19.84H164.566C164.678 19.84 164.811 19.8293 164.966 19.808C165.126 19.7867 165.267 19.76 165.39 19.728C165.667 19.648 165.867 19.4987 165.99 19.28C166.118 19.0613 166.182 18.824 166.182 18.568C166.182 18.2267 166.086 17.9493 165.894 17.736C165.707 17.5227 165.459 17.3893 165.15 17.336C165.038 17.304 164.915 17.2853 164.782 17.28C164.654 17.2747 164.539 17.272 164.438 17.272H161.99V19.84ZM161.99 16.096H164.134C164.283 16.096 164.44 16.088 164.606 16.072C164.771 16.0507 164.915 16.016 165.038 15.968C165.283 15.8773 165.462 15.728 165.574 15.52C165.691 15.3067 165.75 15.0747 165.75 14.824C165.75 14.5467 165.686 14.304 165.558 14.096C165.435 13.8827 165.246 13.736 164.99 13.656C164.819 13.592 164.627 13.5573 164.414 13.552C164.206 13.5413 164.072 13.536 164.014 13.536H161.99V16.096ZM172.901 21.24C172.026 21.24 171.282 21.0453 170.669 20.656C170.061 20.2613 169.597 19.72 169.277 19.032C168.957 18.344 168.791 17.56 168.781 16.68C168.791 15.7787 168.959 14.9867 169.285 14.304C169.615 13.616 170.087 13.08 170.701 12.696C171.314 12.312 172.053 12.12 172.917 12.12C173.829 12.12 174.613 12.344 175.269 12.792C175.93 13.24 176.373 13.8533 176.597 14.632L175.189 15.056C175.007 14.5547 174.711 14.1653 174.301 13.888C173.895 13.6107 173.429 13.472 172.901 13.472C172.309 13.472 171.821 13.6107 171.437 13.888C171.053 14.16 170.767 14.5387 170.581 15.024C170.394 15.504 170.298 16.056 170.293 16.68C170.303 17.64 170.525 18.416 170.957 19.008C171.394 19.5947 172.042 19.888 172.901 19.888C173.466 19.888 173.935 19.76 174.309 19.504C174.682 19.2427 174.965 18.8667 175.157 18.376L176.597 18.752C176.298 19.5573 175.831 20.1733 175.197 20.6C174.562 21.0267 173.797 21.24 172.901 21.24ZM181.973 21.24C181.125 21.24 180.384 21.0533 179.749 20.68C179.12 20.3013 178.629 19.776 178.277 19.104C177.925 18.4267 177.749 17.6373 177.749 16.736C177.749 15.792 177.923 14.976 178.269 14.288C178.616 13.5947 179.099 13.0613 179.717 12.688C180.341 12.3093 181.072 12.12 181.909 12.12C182.779 12.12 183.517 12.32 184.125 12.72C184.739 13.12 185.197 13.6907 185.501 14.432C185.811 15.1733 185.944 16.056 185.901 17.08H184.461V16.568C184.445 15.5067 184.229 14.7147 183.813 14.192C183.397 13.664 182.779 13.4 181.957 13.4C181.077 13.4 180.408 13.6827 179.949 14.248C179.491 14.8133 179.261 15.624 179.261 16.68C179.261 17.6987 179.491 18.488 179.949 19.048C180.408 19.608 181.061 19.888 181.909 19.888C182.48 19.888 182.976 19.7573 183.397 19.496C183.819 19.2347 184.149 18.8587 184.389 18.368L185.757 18.84C185.421 19.6027 184.915 20.1947 184.237 20.616C183.565 21.032 182.811 21.24 181.973 21.24ZM178.781 17.08V15.936H185.165V17.08H178.781ZM191.403 11.352C191.003 11.352 190.637 11.2533 190.307 11.056C189.976 10.8587 189.712 10.5973 189.515 10.272C189.317 9.94133 189.219 9.57333 189.219 9.168H190.371C190.371 9.45067 190.472 9.69333 190.674 9.896C190.877 10.0987 191.12 10.2 191.403 10.2C191.691 10.2 191.933 10.0987 192.131 9.896C192.333 9.69333 192.435 9.45067 192.435 9.168H193.587C193.587 9.57333 193.488 9.94133 193.291 10.272C193.099 10.5973 192.835 10.8587 192.499 11.056C192.168 11.2533 191.803 11.352 191.403 11.352ZM194.755 12.36V21H193.379V14.632L188.851 21H187.675V12.36H189.051V18.64L193.587 12.36H194.755ZM62.12 41V29.48H66.672C66.784 29.48 66.9173 29.4853 67.072 29.496C67.2267 29.5013 67.376 29.5173 67.52 29.544C68.144 29.64 68.6667 29.8533 69.088 30.184C69.5147 30.5147 69.8347 30.9333 70.048 31.44C70.2613 31.9413 70.368 32.4987 70.368 33.112C70.368 33.72 70.2587 34.2773 70.04 34.784C69.8267 35.2853 69.5067 35.704 69.08 36.04C68.6587 36.3707 68.1387 36.584 67.52 36.68C67.376 36.7013 67.2267 36.7173 67.072 36.728C66.9173 36.7387 66.784 36.744 66.672 36.744H63.544V41H62.12ZM63.544 35.392H66.624C66.7253 35.392 66.84 35.3867 66.968 35.376C67.1013 35.3653 67.2267 35.3467 67.344 35.32C67.712 35.2347 68.0107 35.08 68.24 34.856C68.4747 34.6267 68.6453 34.36 68.752 34.056C68.8587 33.7467 68.912 33.432 68.912 33.112C68.912 32.792 68.8587 32.48 68.752 32.176C68.6453 31.8667 68.4747 31.5973 68.24 31.368C68.0107 31.1387 67.712 30.984 67.344 30.904C67.2267 30.872 67.1013 30.8533 66.968 30.848C66.84 30.8373 66.7253 30.832 66.624 30.832H63.544V35.392ZM75.6438 41.24C74.7851 41.24 74.0438 41.0453 73.4198 40.656C72.8011 40.2667 72.3238 39.728 71.9878 39.04C71.6518 38.352 71.4838 37.5627 71.4838 36.672C71.4838 35.7653 71.6544 34.9707 71.9958 34.288C72.3371 33.6053 72.8198 33.0747 73.4438 32.696C74.0678 32.312 74.8011 32.12 75.6438 32.12C76.5078 32.12 77.2518 32.3147 77.8758 32.704C78.4998 33.088 78.9771 33.624 79.3078 34.312C79.6438 34.9947 79.8118 35.7813 79.8118 36.672C79.8118 37.5733 79.6438 38.368 79.3078 39.056C78.9718 39.7387 78.4918 40.2747 77.8678 40.664C77.2438 41.048 76.5024 41.24 75.6438 41.24ZM75.6438 39.888C76.5398 39.888 77.2064 39.5893 77.6438 38.992C78.0811 38.3947 78.2998 37.6213 78.2998 36.672C78.2998 35.696 78.0784 34.92 77.6358 34.344C77.1931 33.7627 76.5291 33.472 75.6438 33.472C75.0411 33.472 74.5451 33.608 74.1558 33.88C73.7664 34.152 73.4758 34.528 73.2838 35.008C73.0918 35.488 72.9958 36.0427 72.9958 36.672C72.9958 37.6427 73.2198 38.4213 73.6678 39.008C74.1158 39.5947 74.7744 39.888 75.6438 39.888ZM85.2131 41.24C84.3385 41.24 83.5945 41.0453 82.9811 40.656C82.3731 40.2613 81.9091 39.72 81.5891 39.032C81.2691 38.344 81.1038 37.56 81.0931 36.68C81.1038 35.7787 81.2718 34.9867 81.5971 34.304C81.9278 33.616 82.3998 33.08 83.0131 32.696C83.6265 32.312 84.3651 32.12 85.2291 32.12C86.1411 32.12 86.9251 32.344 87.5811 32.792C88.2425 33.24 88.6851 33.8533 88.9091 34.632L87.5011 35.056C87.3198 34.5547 87.0238 34.1653 86.6131 33.888C86.2078 33.6107 85.7411 33.472 85.2131 33.472C84.6211 33.472 84.1331 33.6107 83.7491 33.888C83.3651 34.16 83.0798 34.5387 82.8931 35.024C82.7065 35.504 82.6105 36.056 82.6051 36.68C82.6158 37.64 82.8371 38.416 83.2691 39.008C83.7065 39.5947 84.3545 39.888 85.2131 39.888C85.7785 39.888 86.2478 39.76 86.6211 39.504C86.9945 39.2427 87.2771 38.8667 87.4691 38.376L88.9091 38.752C88.6105 39.5573 88.1438 40.1733 87.5091 40.6C86.8745 41.0267 86.1091 41.24 85.2131 41.24ZM93.9475 41.24C93.0728 41.24 92.3288 41.0453 91.7155 40.656C91.1075 40.2613 90.6435 39.72 90.3235 39.032C90.0035 38.344 89.8382 37.56 89.8275 36.68C89.8382 35.7787 90.0062 34.9867 90.3315 34.304C90.6622 33.616 91.1342 33.08 91.7475 32.696C92.3608 32.312 93.0995 32.12 93.9635 32.12C94.8755 32.12 95.6595 32.344 96.3155 32.792C96.9768 33.24 97.4195 33.8533 97.6435 34.632L96.2355 35.056C96.0542 34.5547 95.7582 34.1653 95.3475 33.888C94.9422 33.6107 94.4755 33.472 93.9475 33.472C93.3555 33.472 92.8675 33.6107 92.4835 33.888C92.0995 34.16 91.8142 34.5387 91.6275 35.024C91.4408 35.504 91.3448 36.056 91.3395 36.68C91.3502 37.64 91.5715 38.416 92.0035 39.008C92.4408 39.5947 93.0888 39.888 93.9475 39.888C94.5128 39.888 94.9822 39.76 95.3555 39.504C95.7288 39.2427 96.0115 38.8667 96.2035 38.376L97.6435 38.752C97.3448 39.5573 96.8782 40.1733 96.2435 40.6C95.6088 41.0267 94.8435 41.24 93.9475 41.24ZM106.348 32.36V41H104.972V34.632L100.444 41H99.2683V32.36H100.644V38.64L105.18 32.36H106.348ZM115.661 32.36V41H114.285V34.632L109.757 41H108.581V32.36H109.957V38.64L114.493 32.36H115.661ZM125.208 43.448C124.584 42.728 124.048 41.92 123.6 41.024C123.152 40.128 122.808 39.1867 122.568 38.2C122.328 37.2133 122.214 36.2267 122.224 35.24C122.214 34.248 122.328 33.2587 122.568 32.272C122.808 31.2853 123.152 30.3467 123.6 29.456C124.048 28.56 124.584 27.752 125.208 27.032L126.264 27.832C125.635 28.5787 125.118 29.3547 124.712 30.16C124.312 30.9653 124.016 31.7947 123.824 32.648C123.632 33.496 123.534 34.36 123.528 35.24C123.534 36.1093 123.632 36.9733 123.824 37.832C124.022 38.6853 124.32 39.5173 124.72 40.328C125.126 41.1333 125.64 41.904 126.264 42.64L125.208 43.448ZM128.058 41V29.48H129.482V34.888L134.522 29.48H136.314L131.082 35.072L136.722 41H134.882L129.482 35.368V41H128.058ZM137.039 41L140.895 29.48H142.879L146.735 41H145.255L141.647 30.312H142.095L138.519 41H137.039ZM138.895 38.304V36.968H144.879V38.304H138.895ZM148.167 41V29.48H152.719C152.831 29.48 152.964 29.4853 153.119 29.496C153.274 29.5013 153.423 29.5173 153.567 29.544C154.191 29.64 154.714 29.8533 155.135 30.184C155.562 30.5147 155.882 30.9333 156.095 31.44C156.308 31.9413 156.415 32.4987 156.415 33.112C156.415 33.72 156.306 34.2773 156.087 34.784C155.874 35.2853 155.554 35.704 155.127 36.04C154.706 36.3707 154.186 36.584 153.567 36.68C153.423 36.7013 153.274 36.7173 153.119 36.728C152.964 36.7387 152.831 36.744 152.719 36.744H149.591V41H148.167ZM149.591 35.392H152.671C152.772 35.392 152.887 35.3867 153.015 35.376C153.148 35.3653 153.274 35.3467 153.391 35.32C153.759 35.2347 154.058 35.08 154.287 34.856C154.522 34.6267 154.692 34.36 154.799 34.056C154.906 33.7467 154.959 33.432 154.959 33.112C154.959 32.792 154.906 32.48 154.799 32.176C154.692 31.8667 154.522 31.5973 154.287 31.368C154.058 31.1387 153.759 30.984 153.391 30.904C153.274 30.872 153.148 30.8533 153.015 30.848C152.887 30.8373 152.772 30.832 152.671 30.832H149.591V35.392ZM158.011 41V29.48H165.291V30.832H159.435V41H158.011ZM171.309 41.24C170.162 41.24 169.189 40.9867 168.389 40.48C167.589 39.9733 166.978 39.2693 166.557 38.368C166.141 37.4667 165.933 36.424 165.933 35.24C165.933 34.056 166.141 33.0133 166.557 32.112C166.978 31.2107 167.589 30.5067 168.389 30C169.189 29.4933 170.162 29.24 171.309 29.24C172.461 29.24 173.437 29.4933 174.237 30C175.037 30.5067 175.645 31.2107 176.061 32.112C176.477 33.0133 176.685 34.056 176.685 35.24C176.685 36.424 176.477 37.4667 176.061 38.368C175.645 39.2693 175.037 39.9733 174.237 40.48C173.437 40.9867 172.461 41.24 171.309 41.24ZM171.309 39.88C172.168 39.8853 172.882 39.6933 173.453 39.304C174.029 38.9093 174.458 38.3627 174.741 37.664C175.029 36.9653 175.173 36.1573 175.173 35.24C175.173 34.3173 175.029 33.5093 174.741 32.816C174.458 32.1227 174.029 31.5813 173.453 31.192C172.882 30.8027 172.168 30.6053 171.309 30.6C170.45 30.5947 169.736 30.7867 169.165 31.176C168.6 31.5653 168.173 32.1093 167.885 32.808C167.597 33.5067 167.45 34.3173 167.445 35.24C167.44 36.1573 167.581 36.9627 167.869 37.656C168.157 38.3493 168.586 38.8933 169.157 39.288C169.733 39.6773 170.45 39.8747 171.309 39.88ZM177.335 42.792L177.423 42.128C177.647 42.144 177.815 42.1013 177.927 42C178.039 41.8987 178.111 41.76 178.143 41.584C178.175 41.408 178.18 41.2133 178.159 41H177.335V39.192H178.903V41.24C178.903 41.8 178.764 42.2213 178.487 42.504C178.215 42.7867 177.831 42.8827 177.335 42.792ZM189.887 41.24C188.741 41.24 187.767 40.9867 186.967 40.48C186.167 39.9733 185.557 39.2693 185.135 38.368C184.719 37.4667 184.511 36.424 184.511 35.24C184.511 34.056 184.719 33.0133 185.135 32.112C185.557 31.2107 186.167 30.5067 186.967 30C187.767 29.4933 188.741 29.24 189.887 29.24C191.221 29.24 192.317 29.5787 193.175 30.256C194.039 30.9333 194.634 31.8453 194.959 32.992L193.511 33.376C193.277 32.5173 192.858 31.84 192.255 31.344C191.653 30.848 190.863 30.6 189.887 30.6C189.029 30.6 188.314 30.7947 187.743 31.184C187.173 31.5733 186.743 32.1173 186.455 32.816C186.167 33.5093 186.021 34.3173 186.015 35.24C186.01 36.1573 186.151 36.9653 186.439 37.664C186.727 38.3573 187.159 38.9013 187.735 39.296C188.311 39.6853 189.029 39.88 189.887 39.88C190.863 39.88 191.653 39.632 192.255 39.136C192.858 38.6347 193.277 37.9573 193.511 37.104L194.959 37.488C194.634 38.6293 194.039 39.5413 193.175 40.224C192.317 40.9013 191.221 41.24 189.887 41.24ZM195.841 42.92V39.648C196.263 39.648 196.604 39.5413 196.865 39.328C197.132 39.1147 197.34 38.8267 197.489 38.464C197.639 38.096 197.751 37.6827 197.825 37.224C197.905 36.7653 197.969 36.2907 198.017 35.8C198.087 35.1067 198.143 34.4347 198.185 33.784C198.233 33.1333 198.276 32.4587 198.313 31.76C198.351 31.0613 198.393 30.2987 198.441 29.472L205.681 29.48V39.648H206.521V42.92H205.097V41H197.265V42.92H195.841ZM198.337 39.648H204.257V30.832L199.761 30.824C199.729 31.4427 199.697 32.0373 199.665 32.608C199.639 33.1733 199.604 33.744 199.561 34.32C199.519 34.896 199.465 35.5067 199.401 36.152C199.343 36.7493 199.276 37.2667 199.201 37.704C199.132 38.136 199.031 38.5093 198.897 38.824C198.764 39.1333 198.577 39.408 198.337 39.648ZM212.708 41.24C211.871 41.24 211.114 41.0987 210.436 40.816C209.764 40.5333 209.196 40.12 208.732 39.576C208.268 39.032 207.93 38.3653 207.716 37.576L209.116 37.216C209.362 38.032 209.794 38.6827 210.412 39.168C211.031 39.6533 211.772 39.8907 212.636 39.88C213.228 39.8693 213.783 39.7573 214.3 39.544C214.823 39.3253 215.252 38.9867 215.588 38.528C215.898 38.128 216.114 37.7093 216.236 37.272C216.359 36.8293 216.436 36.376 216.468 35.912H212.292V34.56H216.476C216.412 33.776 216.223 33.0853 215.908 32.488C215.599 31.8907 215.17 31.4267 214.62 31.096C214.076 30.76 213.415 30.5973 212.636 30.608C211.719 30.6187 210.948 30.8747 210.324 31.376C209.7 31.872 209.284 32.552 209.076 33.416L207.636 33.208C207.924 31.944 208.514 30.968 209.404 30.28C210.295 29.5867 211.396 29.24 212.708 29.24C213.828 29.24 214.78 29.4907 215.564 29.992C216.348 30.4933 216.948 31.1947 217.364 32.096C217.786 32.9973 218.002 34.0453 218.012 35.24C218.028 36.36 217.831 37.3733 217.42 38.28C217.01 39.1867 216.404 39.9067 215.604 40.44C214.81 40.9733 213.844 41.24 212.708 41.24ZM219.604 41V29.48H221.028V34.888L226.068 29.48H227.86L222.628 35.072L228.268 41H226.428L221.028 35.368V41H219.604ZM230.002 43.448L228.946 42.64C229.57 41.904 230.082 41.1333 230.482 40.328C230.887 39.5173 231.188 38.6853 231.386 37.832C231.583 36.9733 231.682 36.1093 231.682 35.24C231.682 34.36 231.583 33.496 231.386 32.648C231.194 31.7947 230.895 30.9653 230.49 30.16C230.09 29.3547 229.575 28.5787 228.946 27.832L230.002 27.032C230.626 27.752 231.162 28.56 231.61 29.456C232.063 30.3467 232.407 31.2853 232.642 32.272C232.882 33.2587 232.996 34.248 232.986 35.24C232.996 36.2267 232.882 37.2133 232.642 38.2C232.407 39.1867 232.063 40.128 231.61 41.024C231.162 41.92 230.626 42.728 230.002 43.448Z" fill="#262626"/>
<circle cx="24.5" cy="24.5" r="24.5" fill="url(#paint0_linear_12_2854)" fill-opacity="0.68"/>
<path d="M36.7268 24.8583L35.2127 23.4538C35.1094 23.358 35.0303 23.2393 34.9816 23.1072L33.7925 19.8782C33.6224 19.4232 33.3177 19.0308 32.919 18.7533C32.5202 18.4758 32.0464 18.3264 31.5606 18.3251H29.7589V17.8196C29.7589 17.6023 29.6726 17.3938 29.5189 17.2401C29.3652 17.0864 29.1567 17 28.9394 17H18.0511C17.8891 16.9981 17.7327 17.0595 17.6153 17.1711C17.4978 17.2826 17.4284 17.4356 17.422 17.5975C17.4205 17.6784 17.4351 17.7588 17.465 17.834C17.4949 17.9093 17.5396 17.9777 17.5963 18.0355C17.6529 18.0933 17.7206 18.1392 17.7952 18.1705C17.8698 18.2018 17.95 18.2179 18.0309 18.218H28.541V23.5021C28.541 23.7195 28.6273 23.928 28.781 24.0817C28.9347 24.2354 29.1432 24.3217 29.3606 24.3217H34.3101L35.7801 25.6446V30.5795H34.4474C34.3147 29.9988 33.9888 29.4803 33.523 29.109C33.0573 28.7376 32.4792 28.5354 31.8836 28.5354C31.2879 28.5354 30.7099 28.7376 30.2441 29.109C29.7783 29.4803 29.4524 29.9988 29.3197 30.5795H25.2188C25.0861 29.9988 24.7602 29.4803 24.2944 29.109C23.8287 28.7376 23.2506 28.5354 22.655 28.5354C22.0593 28.5354 21.4812 28.7376 21.0155 29.109C20.5497 29.4803 20.2238 29.9988 20.0911 30.5795H18.0511C17.889 30.5776 17.7327 30.6389 17.6152 30.7505C17.4977 30.8621 17.4284 31.0152 17.422 31.1771C17.4205 31.258 17.4351 31.3384 17.465 31.4136C17.4949 31.4888 17.5396 31.5573 17.5963 31.6151C17.6529 31.6728 17.7206 31.7187 17.7952 31.75C17.8698 31.7814 17.95 31.7975 18.0309 31.7975H20.1013C20.2424 32.3681 20.5705 32.875 21.0333 33.2374C21.4961 33.5997 22.067 33.7966 22.6548 33.7966C23.2426 33.7966 23.8134 33.5997 24.2762 33.2374C24.7391 32.875 25.0672 32.3681 25.2082 31.7975H29.33C29.4711 32.3681 29.7992 32.875 30.262 33.2374C30.7249 33.5997 31.2957 33.7966 31.8835 33.7966C32.4713 33.7966 33.0421 33.5997 33.5049 33.2374C33.9678 32.875 34.2959 32.3681 34.4369 31.7975H36.1785C36.3959 31.7975 36.6043 31.7111 36.758 31.5575C36.9117 31.4038 36.9981 31.1953 36.9981 30.978V25.4674C36.998 25.3526 36.9738 25.239 36.9271 25.1341C36.8804 25.0291 36.8122 24.9352 36.7268 24.8583ZM29.7589 23.1039V19.5429H31.5606C31.7978 19.5436 32.0292 19.6165 32.2238 19.752C32.4185 19.8875 32.5673 20.0791 32.6503 20.3013L33.6884 23.1039H29.7589ZM22.6548 32.5785C22.3754 32.5785 22.1023 32.4956 21.87 32.3404C21.6377 32.1852 21.4567 31.9646 21.3497 31.7065C21.2428 31.4483 21.2149 31.1643 21.2694 30.8903C21.3239 30.6163 21.4584 30.3646 21.656 30.167C21.8535 29.9695 22.1052 29.8349 22.3793 29.7804C22.6533 29.7259 22.9373 29.7539 23.1954 29.8609C23.4535 29.9678 23.6741 30.1488 23.8294 30.3811C23.9846 30.6134 24.0674 30.8866 24.0674 31.1659C24.067 31.5405 23.918 31.8995 23.6532 32.1643C23.3884 32.4291 23.0293 32.5781 22.6548 32.5785ZM31.8835 32.5785C31.6041 32.5785 31.331 32.4957 31.0987 32.3404C30.8664 32.1852 30.6853 31.9646 30.5784 31.7065C30.4715 31.4484 30.4435 31.1643 30.498 30.8903C30.5525 30.6163 30.6871 30.3646 30.8846 30.167C31.0822 29.9695 31.3339 29.835 31.6079 29.7805C31.8819 29.7259 32.1659 29.7539 32.4241 29.8608C32.6822 29.9678 32.9028 30.1488 33.058 30.3811C33.2132 30.6134 33.2961 30.8866 33.2961 31.1659C33.2956 31.5404 33.1467 31.8995 32.8819 32.1643C32.617 32.4291 32.258 32.5781 31.8835 32.5785Z" fill="white"/>
<path d="M15.4315 21.6243H22.3377C22.4992 21.6243 22.6541 21.5601 22.7683 21.4459C22.8826 21.3317 22.9467 21.1768 22.9467 21.0153C22.9467 20.8538 22.8826 20.6988 22.7683 20.5846C22.6541 20.4704 22.4992 20.4062 22.3377 20.4062H15.4315C15.27 20.4062 15.1151 20.4704 15.0009 20.5846C14.8866 20.6988 14.8225 20.8538 14.8225 21.0153C14.8225 21.1768 14.8866 21.3317 15.0009 21.4459C15.1151 21.5601 15.27 21.6243 15.4315 21.6243ZM22.9467 24.3983C22.9467 24.2367 22.8826 24.0818 22.7683 23.9676C22.6541 23.8534 22.4992 23.7892 22.3377 23.7892H12.6145C12.534 23.7885 12.4543 23.8037 12.3797 23.834C12.3052 23.8643 12.2374 23.9091 12.1803 23.9657C12.1232 24.0223 12.0778 24.0897 12.0469 24.1639C12.0159 24.2382 12 24.3178 12 24.3982C12 24.4787 12.0159 24.5583 12.0469 24.6326C12.0778 24.7068 12.1232 24.7742 12.1803 24.8308C12.2374 24.8874 12.3052 24.9322 12.3797 24.9625C12.4543 24.9928 12.534 25.008 12.6145 25.0073H22.3377C22.4992 25.0073 22.6541 24.9431 22.7683 24.8289C22.8825 24.7147 22.9467 24.5598 22.9467 24.3983ZM19.0905 27.7813C19.0905 27.7013 19.0748 27.6221 19.0441 27.5482C19.0135 27.4743 18.9687 27.4072 18.9121 27.3507C18.8556 27.2941 18.7885 27.2492 18.7146 27.2186C18.6407 27.188 18.5615 27.1723 18.4815 27.1723H14.2486C14.0881 27.1737 13.9346 27.2385 13.8215 27.3526C13.7085 27.4666 13.6451 27.6207 13.6451 27.7813C13.6451 27.9419 13.7085 28.096 13.8215 28.21C13.9346 28.3241 14.0881 28.3889 14.2486 28.3903H18.4815C18.643 28.3903 18.7979 28.3261 18.9121 28.2119C19.0263 28.0977 19.0905 27.9428 19.0905 27.7813Z" fill="white"/>
<defs>
<linearGradient id="paint0_linear_12_2854" x1="-1.1878e-07" y1="31.2449" x2="50.4076" y2="28.6621" gradientUnits="userSpaceOnUse">
<stop stop-color="#5F6308"/>
<stop offset="1" stop-color="#302F02"/>
</linearGradient>
</defs>
</svg>
