<svg width="137" height="49" viewBox="0 0 137 49" fill="none" xmlns="http://www.w3.org/2000/svg">
<path d="M65.088 21V10.832H61.16V9.48H70.44V10.832H66.512V21H65.088ZM74.1125 21.24C73.2538 21.24 72.5125 21.0453 71.8885 20.656C71.2698 20.2667 70.7925 19.728 70.4565 19.04C70.1205 18.352 69.9525 17.5627 69.9525 16.672C69.9525 15.7653 70.1232 14.9707 70.4645 14.288C70.8058 13.6053 71.2885 13.0747 71.9125 12.696C72.5365 12.312 73.2698 12.12 74.1125 12.12C74.9765 12.12 75.7205 12.3147 76.3445 12.704C76.9685 13.088 77.4458 13.624 77.7765 14.312C78.1125 14.9947 78.2805 15.7813 78.2805 16.672C78.2805 17.5733 78.1125 18.368 77.7765 19.056C77.4405 19.7387 76.9605 20.2747 76.3365 20.664C75.7125 21.048 74.9712 21.24 74.1125 21.24ZM74.1125 19.888C75.0085 19.888 75.6752 19.5893 76.1125 18.992C76.5498 18.3947 76.7685 17.6213 76.7685 16.672C76.7685 15.696 76.5472 14.92 76.1045 14.344C75.6618 13.7627 74.9978 13.472 74.1125 13.472C73.5098 13.472 73.0138 13.608 72.6245 13.88C72.2352 14.152 71.9445 14.528 71.7525 15.008C71.5605 15.488 71.4645 16.0427 71.4645 16.672C71.4645 17.6427 71.6885 18.4213 72.1365 19.008C72.5845 19.5947 73.2432 19.888 74.1125 19.888ZM79.2419 21V19.776C79.5619 19.8347 79.8045 19.824 79.9699 19.744C80.1405 19.6587 80.2659 19.512 80.3459 19.304C80.4312 19.0907 80.5005 18.824 80.5539 18.504C80.6445 17.9973 80.7219 17.432 80.7859 16.808C80.8552 16.184 80.9165 15.5013 80.9699 14.76C81.0285 14.0133 81.0819 13.2133 81.1299 12.36H87.1699V21H85.7459V13.712H82.4259C82.3939 14.2027 82.3539 14.7067 82.3059 15.224C82.2632 15.7413 82.2179 16.2453 82.1699 16.736C82.1219 17.2213 82.0685 17.6747 82.0099 18.096C81.9565 18.512 81.8979 18.872 81.8339 19.176C81.7325 19.6987 81.5912 20.1173 81.4099 20.432C81.2285 20.7413 80.9672 20.9413 80.6259 21.032C80.2845 21.128 79.8232 21.1173 79.2419 21ZM89.4169 21L89.4089 12.36H90.8409V15.488H92.7049C92.9555 15.488 93.2115 15.4933 93.4729 15.504C93.7342 15.5147 93.9609 15.5387 94.1529 15.576C94.6009 15.6613 94.9929 15.8107 95.3289 16.024C95.6649 16.2373 95.9262 16.528 96.1129 16.896C96.2995 17.2587 96.3929 17.7093 96.3929 18.248C96.3929 18.9947 96.1982 19.5867 95.8089 20.024C95.4249 20.456 94.9209 20.744 94.2969 20.888C94.0835 20.936 93.8382 20.968 93.5609 20.984C93.2889 20.9947 93.0302 21 92.7849 21H89.4169ZM90.8409 19.824H92.8089C92.9689 19.824 93.1475 19.8187 93.3449 19.808C93.5422 19.7973 93.7182 19.7707 93.8729 19.728C94.1449 19.648 94.3875 19.4907 94.6009 19.256C94.8195 19.0213 94.9289 18.6853 94.9289 18.248C94.9289 17.8053 94.8222 17.464 94.6089 17.224C94.4009 16.984 94.1262 16.8267 93.7849 16.752C93.6302 16.7147 93.4675 16.6907 93.2969 16.68C93.1262 16.6693 92.9635 16.664 92.8089 16.664H90.8409V19.824ZM98.1433 21L98.1513 12.36H99.5913V16.52L103.215 12.36H105.063L101.247 16.68L105.511 21H103.519L99.5913 16.84V21H98.1433ZM109.831 21.24C108.973 21.24 108.231 21.0453 107.607 20.656C106.989 20.2667 106.511 19.728 106.175 19.04C105.839 18.352 105.671 17.5627 105.671 16.672C105.671 15.7653 105.842 14.9707 106.183 14.288C106.525 13.6053 107.007 13.0747 107.631 12.696C108.255 12.312 108.989 12.12 109.831 12.12C110.695 12.12 111.439 12.3147 112.063 12.704C112.687 13.088 113.165 13.624 113.495 14.312C113.831 14.9947 113.999 15.7813 113.999 16.672C113.999 17.5733 113.831 18.368 113.495 19.056C113.159 19.7387 112.679 20.2747 112.055 20.664C111.431 21.048 110.69 21.24 109.831 21.24ZM109.831 19.888C110.727 19.888 111.394 19.5893 111.831 18.992C112.269 18.3947 112.487 17.6213 112.487 16.672C112.487 15.696 112.266 14.92 111.823 14.344C111.381 13.7627 110.717 13.472 109.831 13.472C109.229 13.472 108.733 13.608 108.343 13.88C107.954 14.152 107.663 14.528 107.471 15.008C107.279 15.488 107.183 16.0427 107.183 16.672C107.183 17.6427 107.407 18.4213 107.855 19.008C108.303 19.5947 108.962 19.888 109.831 19.888ZM66.856 41.24C65.7093 41.24 64.736 40.9867 63.936 40.48C63.136 39.9733 62.5253 39.2693 62.104 38.368C61.688 37.4667 61.48 36.424 61.48 35.24C61.48 34.056 61.688 33.0133 62.104 32.112C62.5253 31.2107 63.136 30.5067 63.936 30C64.736 29.4933 65.7093 29.24 66.856 29.24C68.008 29.24 68.984 29.4933 69.784 30C70.584 30.5067 71.192 31.2107 71.608 32.112C72.024 33.0133 72.232 34.056 72.232 35.24C72.232 36.424 72.024 37.4667 71.608 38.368C71.192 39.2693 70.584 39.9733 69.784 40.48C68.984 40.9867 68.008 41.24 66.856 41.24ZM66.856 39.88C67.7147 39.8853 68.4293 39.6933 69 39.304C69.576 38.9093 70.0053 38.3627 70.288 37.664C70.576 36.9653 70.72 36.1573 70.72 35.24C70.72 34.3173 70.576 33.5093 70.288 32.816C70.0053 32.1227 69.576 31.5813 69 31.192C68.4293 30.8027 67.7147 30.6053 66.856 30.6C65.9973 30.5947 65.2827 30.7867 64.712 31.176C64.1467 31.5653 63.72 32.1093 63.432 32.808C63.144 33.5067 62.9973 34.3173 62.992 35.24C62.9867 36.1573 63.128 36.9627 63.416 37.656C63.704 38.3493 64.1333 38.8933 64.704 39.288C65.28 39.6773 65.9973 39.8747 66.856 39.88ZM77.8068 41.24C76.9961 41.24 76.3134 41.04 75.7588 40.64C75.2041 40.2347 74.7828 39.688 74.4948 39C74.2121 38.3067 74.0708 37.5307 74.0708 36.672C74.0708 35.8027 74.2121 35.024 74.4948 34.336C74.7828 33.648 75.2041 33.1067 75.7588 32.712C76.3188 32.3173 77.0041 32.12 77.8148 32.12C78.6148 32.12 79.3028 32.32 79.8788 32.72C80.4601 33.1147 80.9054 33.656 81.2148 34.344C81.5241 35.032 81.6788 35.808 81.6788 36.672C81.6788 37.536 81.5241 38.312 81.2148 39C80.9054 39.688 80.4601 40.2347 79.8788 40.64C79.3028 41.04 78.6121 41.24 77.8068 41.24ZM73.8308 44.84V32.36H75.1028V38.72H75.2628V44.84H73.8308ZM77.6308 39.936C78.2014 39.936 78.6734 39.792 79.0468 39.504C79.4201 39.216 79.7001 38.8267 79.8868 38.336C80.0734 37.84 80.1668 37.2853 80.1668 36.672C80.1668 36.064 80.0734 35.5147 79.8868 35.024C79.7054 34.5333 79.4228 34.144 79.0388 33.856C78.6601 33.568 78.1774 33.424 77.5908 33.424C77.0308 33.424 76.5668 33.5627 76.1988 33.84C75.8308 34.112 75.5561 34.4933 75.3748 34.984C75.1934 35.4693 75.1028 36.032 75.1028 36.672C75.1028 37.3013 75.1908 37.864 75.3668 38.36C75.5481 38.8507 75.8254 39.2373 76.1988 39.52C76.5721 39.7973 77.0494 39.936 77.6308 39.936ZM90.5045 32.36V41H89.1285V34.632L84.6005 41H83.4245V32.36H84.8005V38.64L89.3365 32.36H90.5045ZM92.745 41V32.36H98.745V33.712H94.169V41H92.745ZM107.333 32.36V41H105.957V34.632L101.429 41H100.253V32.36H101.629V38.64L106.165 32.36H107.333ZM109.565 41V32.36H110.989V36H115.533V32.36H116.957V41H115.533V37.352H110.989V41H109.565ZM121.654 41.24C121.009 41.24 120.467 41.1227 120.03 40.888C119.598 40.648 119.27 40.3333 119.046 39.944C118.827 39.5547 118.718 39.128 118.718 38.664C118.718 38.2107 118.803 37.8187 118.974 37.488C119.15 37.152 119.395 36.8747 119.71 36.656C120.025 36.432 120.401 36.256 120.838 36.128C121.249 36.016 121.707 35.92 122.214 35.84C122.726 35.7547 123.243 35.6773 123.766 35.608C124.289 35.5387 124.777 35.472 125.23 35.408L124.718 35.704C124.734 34.936 124.579 34.368 124.254 34C123.934 33.632 123.379 33.448 122.59 33.448C122.067 33.448 121.609 33.568 121.214 33.808C120.825 34.0427 120.55 34.4267 120.39 34.96L119.038 34.552C119.246 33.7947 119.649 33.2 120.246 32.768C120.843 32.336 121.63 32.12 122.606 32.12C123.39 32.12 124.062 32.2613 124.622 32.544C125.187 32.8213 125.593 33.2427 125.838 33.808C125.961 34.0747 126.038 34.3653 126.07 34.68C126.102 34.9893 126.118 35.3147 126.118 35.656V41H124.854V38.928L125.15 39.12C124.825 39.8187 124.369 40.3467 123.782 40.704C123.201 41.0613 122.491 41.24 121.654 41.24ZM121.87 40.048C122.382 40.048 122.825 39.9573 123.198 39.776C123.577 39.5893 123.881 39.3467 124.11 39.048C124.339 38.744 124.489 38.4133 124.558 38.056C124.638 37.7893 124.681 37.4933 124.686 37.168C124.697 36.8373 124.702 36.584 124.702 36.408L125.198 36.624C124.734 36.688 124.278 36.7493 123.83 36.808C123.382 36.8667 122.958 36.9307 122.558 37C122.158 37.064 121.798 37.1413 121.478 37.232C121.243 37.3067 121.022 37.4027 120.814 37.52C120.611 37.6373 120.446 37.7893 120.318 37.976C120.195 38.1573 120.134 38.384 120.134 38.656C120.134 38.8907 120.193 39.1147 120.31 39.328C120.433 39.5413 120.619 39.7147 120.87 39.848C121.126 39.9813 121.459 40.048 121.87 40.048ZM127.398 41V39.776C127.718 39.8347 127.961 39.824 128.126 39.744C128.297 39.6587 128.422 39.512 128.502 39.304C128.587 39.0907 128.657 38.824 128.71 38.504C128.801 37.9973 128.878 37.432 128.942 36.808C129.011 36.184 129.073 35.5013 129.126 34.76C129.185 34.0133 129.238 33.2133 129.286 32.36H135.326V41H133.902V33.712H130.582C130.55 34.2027 130.51 34.7067 130.462 35.224C130.419 35.7413 130.374 36.2453 130.326 36.736C130.278 37.2213 130.225 37.6747 130.166 38.096C130.113 38.512 130.054 38.872 129.99 39.176C129.889 39.6987 129.747 40.1173 129.566 40.432C129.385 40.7413 129.123 40.9413 128.782 41.032C128.441 41.128 127.979 41.1173 127.398 41Z" fill="#262626"/>
<circle cx="24.5" cy="24.5" r="24.5" fill="url(#paint0_linear_12_2840)" fill-opacity="0.68"/>
<path d="M13 24.553V26.3994C13.0692 28.2181 15.6763 28.2167 15.7449 26.3994V24.553C15.6757 22.7343 13.0686 22.7357 13 24.553ZM14.8463 24.553V26.3994C14.8224 27.0273 13.9222 27.0269 13.8985 26.3994V24.553C13.8985 24.2917 14.1111 24.0791 14.3724 24.0791C14.6337 24.0791 14.8463 24.2917 14.8463 24.553ZM33.938 23.1806C33.6898 23.1806 33.4887 23.3817 33.4887 23.6299V27.3226C33.4887 27.5707 33.6898 27.7718 33.938 27.7718H35.5535C36.149 27.7497 36.1485 26.8952 35.5535 26.8733H34.3873V23.6299C34.3873 23.3817 34.1861 23.1806 33.938 23.1806ZM28.4112 23.6299V25.4194L27.416 23.4289C27.3707 23.3384 27.2962 23.2658 27.2045 23.2229C27.1129 23.18 27.0094 23.1693 26.9109 23.1925C26.8124 23.2158 26.7246 23.2716 26.6618 23.351C26.599 23.4304 26.5648 23.5286 26.5648 23.6299V27.3226C26.5869 27.918 27.4415 27.9176 27.4634 27.3226V25.533L28.4586 27.5235C28.5514 27.7109 28.765 27.8078 28.9637 27.7598C29.0622 27.7366 29.1499 27.6807 29.2128 27.6014C29.2756 27.522 29.3097 27.4238 29.3097 27.3226V23.6299C29.2876 23.0344 28.4331 23.0348 28.4112 23.6299ZM19.2068 24.553C19.2068 23.7962 18.5911 23.1805 17.8344 23.1805H16.9112C16.6631 23.1805 16.4619 23.3817 16.4619 23.6298V27.3226C16.484 27.918 17.3386 27.9176 17.3605 27.3226V25.9254H17.5567L18.3557 27.5235C18.4671 27.7477 18.7413 27.8344 18.9585 27.7244C19.1804 27.6134 19.2704 27.3435 19.1594 27.1216L18.4804 25.7636C18.9123 25.5322 19.2068 25.0763 19.2068 24.553ZM17.3605 24.0791H17.8344C18.4598 24.1026 18.4631 24.998 17.8386 25.0268C17.8345 25.0268 17.8304 25.0268 17.8263 25.0269H17.3605V24.0791ZM32.3224 27.7718C32.5705 27.7718 32.7717 27.5707 32.7717 27.3226V24.553C32.7024 22.7343 30.0953 22.7357 30.0267 24.553V27.3226C30.0488 27.918 30.9034 27.9176 30.9253 27.3226V26.387H31.8731V27.3226C31.8731 27.5707 32.0743 27.7718 32.3224 27.7718ZM30.9253 25.4885V24.553C30.9492 23.925 31.8494 23.9255 31.8731 24.553V25.4885H30.9253ZM19.8718 23.6299V27.3226C19.8939 27.918 20.7485 27.9176 20.7704 27.3226V23.6299C20.7483 23.0344 19.8937 23.0348 19.8718 23.6299ZM22.8598 24.0791C23.0382 24.0791 23.2001 24.179 23.2824 24.3398C23.3954 24.5607 23.6661 24.6481 23.887 24.5351C24.1079 24.4221 24.1953 24.1513 24.0823 23.9305C23.4225 22.6548 21.4982 23.1191 21.4874 24.553V26.3994C21.5566 28.2181 24.1637 28.2167 24.2323 26.3994V25.7178C24.2323 25.4696 24.0311 25.2685 23.783 25.2685H23.3215C22.726 25.2906 22.7265 26.1452 23.3215 26.167H23.3337V26.3994C23.3098 27.0274 22.4096 27.0269 22.3859 26.3994V24.553C22.3859 24.2917 22.5985 24.0791 22.8598 24.0791ZM24.9493 23.6299V27.3226C24.9714 27.918 25.8259 27.9176 25.8478 27.3226V23.6299C25.8257 23.0344 24.9712 23.0348 24.9493 23.6299ZM13.4492 22.1066H35.5536C36.149 22.0845 36.1486 21.23 35.5536 21.2081H35.1841C31.2817 11.5948 17.7176 11.5998 13.8187 21.2081H13.4492C12.8538 21.2302 12.8542 22.0848 13.4492 22.1066ZM17.5792 21.2081C20.6203 16.0916 28.3836 16.093 31.4236 21.2081H17.5792ZM24.5014 14.8733C28.7023 14.8733 32.5295 17.3952 34.2096 21.2081H32.4596C31.6977 19.7874 30.5693 18.5965 29.1917 17.7592C26.3758 16.015 22.627 16.015 19.8112 17.7592C18.4335 18.5965 17.3051 19.7873 16.5433 21.2081H14.7932C16.4733 17.3952 20.3005 14.8733 24.5014 14.8733ZM35.5536 28.8457H13.4492C12.8538 28.8678 12.8542 29.7224 13.4492 29.7442H13.8187C17.7211 39.3576 31.2852 39.3525 35.1841 29.7442H35.5536C36.149 29.7222 36.1486 28.8676 35.5536 28.8457ZM31.4236 29.7442C28.3825 34.8607 20.6192 34.8594 17.5792 29.7442H31.4236ZM24.5014 36.079C20.3005 36.079 16.4733 33.5571 14.7932 29.7442H16.5432C19.9367 36.0724 29.0681 36.0697 32.4595 29.7442H34.2095C32.5295 33.5572 28.7023 36.079 24.5014 36.079Z" fill="white"/>
<defs>
<linearGradient id="paint0_linear_12_2840" x1="-1.1878e-07" y1="31.2449" x2="50.4076" y2="28.6621" gradientUnits="userSpaceOnUse">
<stop stop-color="#5F6308"/>
<stop offset="1" stop-color="#302F02"/>
</linearGradient>
</defs>
</svg>
