<svg width="14" height="14" viewBox="0 0 14 14" fill="none" xmlns="http://www.w3.org/2000/svg">
<path fill-rule="evenodd" clip-rule="evenodd" d="M7 4.8125C6.6519 4.8125 6.31806 4.95078 6.07192 5.19692C5.82578 5.44306 5.6875 5.7769 5.6875 6.125C5.6875 6.4731 5.82578 6.80694 6.07192 7.05308C6.31806 7.29922 6.6519 7.4375 7 7.4375C7.3481 7.4375 7.68194 7.29922 7.92808 7.05308C8.17422 6.80694 8.3125 6.4731 8.3125 6.125C8.3125 5.7769 8.17422 5.44306 7.92808 5.19692C7.68194 4.95078 7.3481 4.8125 7 4.8125ZM5.4532 4.5782C5.86344 4.16797 6.41984 3.9375 7 3.9375C7.58016 3.9375 8.13656 4.16797 8.5468 4.5782C8.95703 4.98844 9.1875 5.54484 9.1875 6.125C9.1875 6.70516 8.95703 7.26156 8.5468 7.6718C8.13656 8.08203 7.58016 8.3125 7 8.3125C6.41984 8.3125 5.86344 8.08203 5.4532 7.6718C5.04297 7.26156 4.8125 6.70516 4.8125 6.125C4.8125 5.54484 5.04297 4.98844 5.4532 4.5782Z" fill="white" fill-opacity="0.6"/>
<path fill-rule="evenodd" clip-rule="evenodd" d="M7 2.1875C5.95571 2.1875 4.95419 2.60234 4.21577 3.34077C3.47734 4.07919 3.0625 5.08071 3.0625 6.125C3.0625 8.04761 4.07206 9.5843 5.12549 10.6629C5.64944 11.1993 6.17464 11.6122 6.56884 11.8906C6.74266 12.0134 6.89025 12.1096 7 12.1782C7.10975 12.1096 7.25734 12.0134 7.43116 11.8906C7.82536 11.6122 8.35056 11.1993 8.87451 10.6629C9.92794 9.5843 10.9375 8.04761 10.9375 6.125C10.9375 5.08071 10.5227 4.07919 9.78423 3.34077C9.04581 2.60234 8.04429 2.1875 7 2.1875ZM7 12.6875C6.78983 13.0712 6.78967 13.0711 6.7895 13.071L6.78908 13.0708L6.78793 13.0702L6.78444 13.0682L6.77279 13.0617C6.76298 13.0562 6.74913 13.0483 6.73151 13.0381C6.69628 13.0177 6.64593 12.9879 6.58262 12.9489C6.45606 12.871 6.27739 12.7561 6.06397 12.6053C5.63786 12.3043 5.06931 11.8576 4.49951 11.2743C3.36544 10.1131 2.1875 8.36856 2.1875 6.125C2.1875 4.84865 2.69453 3.62457 3.59705 2.72205C4.49957 1.81953 5.72365 1.3125 7 1.3125C8.27635 1.3125 9.50043 1.81953 10.403 2.72205C11.3055 3.62457 11.8125 4.84865 11.8125 6.125C11.8125 8.36856 10.6346 10.1131 9.50049 11.2743C8.93069 11.8576 8.36214 12.3043 7.93603 12.6053C7.72261 12.7561 7.54394 12.871 7.41738 12.9489C7.35407 12.9879 7.30372 13.0177 7.26849 13.0381C7.25087 13.0483 7.23702 13.0562 7.22721 13.0617L7.21556 13.0682L7.21207 13.0702L7.21092 13.0708L7.2105 13.071C7.21033 13.0711 7.21017 13.0712 7 12.6875ZM7 12.6875L7.21017 13.0712C7.07923 13.1429 6.92077 13.1429 6.78983 13.0712L7 12.6875Z" fill="white" fill-opacity="0.6"/>
</svg>
